REM DIRINDEX 1\2\6,1\2\7,1\2\8,1\2\9,1\3\10,1\3\11,1\4\12,1\4\13,1\4\14,1\5\15,1\5\16,1\5\17
REM DIRNAME cjc020,folder01,folder02,folder03,folder04,folder05,folder06,folder07,folder08,folder09,folder10,folder11,folder12,folder13,folder14,folder15,folder16
TITLE ""
FILE "1900_3_080 sec14_1317_1332.mp3" MP3
  TRACK 01 AUDIO
    TITLE "0:"
    INDEX 01 00:00:00
  TRACK 02 AUDIO
    TITLE "17:cjc020_8614"
    INDEX 01 00:00:13
  TRACK 03 AUDIO
    TITLE "0:"
    INDEX 01 00:01:40
  TRACK 04 AUDIO
    TITLE "16:cjc020_8615"
    INDEX 01 00:01:44
  TRACK 05 AUDIO
    TITLE "0:"
    INDEX 01 00:02:63
  TRACK 06 AUDIO
    TITLE "17:cjc020_8616"
    INDEX 01 00:03:45
  TRACK 07 AUDIO
    TITLE "0:"
    INDEX 01 00:04:66
  TRACK 08 AUDIO
    TITLE "16:cjc020_8617"
    INDEX 01 00:04:68
  TRACK 09 AUDIO
    TITLE "0:"
    INDEX 01 00:06:10
  TRACK 10 AUDIO
    TITLE "17:cjc020_8618"
    INDEX 01 00:06:69
  TRACK 11 AUDIO
    TITLE "0:"
    INDEX 01 00:08:11
  TRACK 12 AUDIO
    TITLE "16:cjc020_8619"
    INDEX 01 00:08:19
  TRACK 13 AUDIO
    TITLE "0:"
    INDEX 01 00:09:32
  TRACK 14 AUDIO
    TITLE "17:cjc020_8620"
    INDEX 01 00:10:18
  TRACK 15 AUDIO
    TITLE "0:"
    INDEX 01 00:11:29
  TRACK 16 AUDIO
    TITLE "16:cjc020_8621"
    INDEX 01 00:11:33
  TRACK 17 AUDIO
    TITLE "0:"
    INDEX 01 00:12:44
  TRACK 18 AUDIO
    TITLE "17:cjc020_8622"
    INDEX 01 00:13:30
  TRACK 19 AUDIO
    TITLE "0:"
    INDEX 01 00:14:60
  TRACK 20 AUDIO
    TITLE "16:cjc020_8623"
    INDEX 01 00:14:74
  TRACK 21 AUDIO
    TITLE "0:"
    INDEX 01 00:16:10
  TRACK 22 AUDIO
    TITLE "17:cjc020_8624"
    INDEX 01 00:16:67
  TRACK 23 AUDIO
    TITLE "0:"
    INDEX 01 00:17:74
  TRACK 24 AUDIO
    TITLE "16:cjc020_8625"
    INDEX 01 00:18:07
  TRACK 25 AUDIO
    TITLE "0:"
    INDEX 01 00:19:07
  TRACK 26 AUDIO
    TITLE "17:cjc020_8626"
    INDEX 01 00:19:65
  TRACK 27 AUDIO
    TITLE "0:"
    INDEX 01 00:21:15
  TRACK 28 AUDIO
    TITLE "16:cjc020_8627"
    INDEX 01 00:21:23
  TRACK 29 AUDIO
    TITLE "0:"
    INDEX 01 00:22:38
  TRACK 30 AUDIO
    TITLE "17:cjc020_8628"
    INDEX 01 00:23:22
  TRACK 31 AUDIO
    TITLE "0:"
    INDEX 01 00:25:03
  TRACK 32 AUDIO
    TITLE "16:cjc020_8629"
    INDEX 01 00:25:09
  TRACK 33 AUDIO
    TITLE "0:"
    INDEX 01 00:26:01
  TRACK 34 AUDIO
    TITLE "17:cjc020_8630"
    INDEX 01 00:26:62
  TRACK 35 AUDIO
    TITLE "0:"
    INDEX 01 00:28:31
  TRACK 36 AUDIO
    TITLE "16:cjc020_8631"
    INDEX 01 00:28:35
  TRACK 37 AUDIO
    TITLE "0:"
    INDEX 01 00:29:54
  TRACK 38 AUDIO
    TITLE "17:cjc020_8632"
    INDEX 01 00:30:36
  TRACK 39 AUDIO
    TITLE "0:"
    INDEX 01 00:31:61
  TRACK 40 AUDIO
    TITLE "16:cjc020_8633"
    INDEX 01 00:31:69
  TRACK 41 AUDIO
    TITLE "0:"
    INDEX 01 00:33:13
  TRACK 42 AUDIO
    TITLE "17:cjc020_8634"
    INDEX 01 00:33:71
  TRACK 43 AUDIO
    TITLE "0:"
    INDEX 01 00:35:15
  TRACK 44 AUDIO
    TITLE "16:cjc020_8635"
    INDEX 01 00:35:21
  TRACK 45 AUDIO
    TITLE "0:"
    INDEX 01 00:36:42
  TRACK 46 AUDIO
    TITLE "17:cjc020_8636"
    INDEX 01 00:37:30
  TRACK 47 AUDIO
    TITLE "0:"
    INDEX 01 00:39:15
  TRACK 48 AUDIO
    TITLE "16:cjc020_8637"
    INDEX 01 00:39:19
  TRACK 49 AUDIO
    TITLE "0:"
    INDEX 01 00:40:30
  TRACK 50 AUDIO
    TITLE "17:cjc020_8638"
    INDEX 01 00:41:16
  TRACK 51 AUDIO
    TITLE "0:"
    INDEX 01 00:42:49
  TRACK 52 AUDIO
    TITLE "16:cjc020_8639"
    INDEX 01 00:42:57
  TRACK 53 AUDIO
    TITLE "0:"
    INDEX 01 00:44:05
  TRACK 54 AUDIO
    TITLE "17:cjc020_8640"
    INDEX 01 00:44:65
  TRACK 55 AUDIO
    TITLE "0:"
    INDEX 01 00:46:09
  TRACK 56 AUDIO
    TITLE "16:cjc020_8641"
    INDEX 01 00:46:13
  TRACK 57 AUDIO
    TITLE "0:"
    INDEX 01 00:47:23
  TRACK 58 AUDIO
    TITLE "17:cjc020_8642"
    INDEX 01 00:48:10
  TRACK 59 AUDIO
    TITLE "0:"
    INDEX 01 00:49:31
  TRACK 60 AUDIO
    TITLE "16:cjc020_8643"
    INDEX 01 00:49:37
  TRACK 61 AUDIO
    TITLE "0:"
    INDEX 01 00:50:52
  TRACK 62 AUDIO
    TITLE "17:cjc020_8644"
    INDEX 01 00:51:36
  TRACK 63 AUDIO
    TITLE "0:"
    INDEX 01 00:52:55
  TRACK 64 AUDIO
    TITLE "16:cjc020_8645"
    INDEX 01 00:52:57
  TRACK 65 AUDIO
    TITLE "0:"
    INDEX 01 00:54:01
